<svg width="124" height="24" xmlns="http://www.w3.org/2000/svg"><path d="M7.1 16.65c-2.5 0-3.95-1.95-3.95-4.15 0-2.55 1.65-4.25 3.95-4.25 1.2 0 2 .5 2.75.95l1.2-2.15c-.85-.55-2.3-1.2-3.8-1.2-3.95 0-6.8 2.8-6.8 6.65 0 3.8 2.9 6.65 6.8 6.65 1.65 0 2.85-.7 3.8-1.25l-1.2-2.15c-.75.5-1.85.9-2.75.9M15.55 0h2.55v18.8h-2.55zM32.8 6.25l-.3 1.1c-.7-.75-2.15-1.5-3.7-1.5-3.15 0-6.05 2.5-6.05 6.55 0 4.2 2.9 6.75 6.05 6.75 1.55 0 2.95-.75 3.7-1.5l.3 1.15h2.15V6.3H32.8v-.05zm-.25 6.35c0 2.85-1.75 4.15-3.4 4.15-1.7 0-3.65-1.15-3.65-4.3 0-2 1.05-4.15 3.45-4.15 1.8 0 3.6 1.45 3.6 4.15v.15zm11.5 1c1.75.45 2.5.8 2.5 1.7 0 .7-.6 1.4-2 1.4-1.3 0-2.35-.45-3.35-1l-1.15 2.15c.9.55 2.85 1.3 4.5 1.3 2.8 0 4.45-1.9 4.45-3.8 0-3.3-3.25-3.8-4.1-4.1-1.8-.5-2.25-.85-2.25-1.6 0-.8.7-1.35 2-1.35 1.15 0 2 .35 2.8.75l1.2-2.15c-1.15-.5-2.5-1-4-1-2.75 0-4.4 1.95-4.4 3.75-.05 2.85 2.4 3.6 3.8 3.95m13.65 0c1.75.45 2.5.8 2.5 1.7 0 .7-.6 1.4-2 1.4-1.3 0-2.35-.45-3.35-1l-1.15 2.15c.9.55 2.85 1.3 4.5 1.3 2.8 0 4.45-1.9 4.45-3.8 0-3.3-3.25-3.8-4.1-4.1-1.8-.5-2.25-.85-2.25-1.6 0-.8.7-1.35 2-1.35 1.15 0 2 .35 2.8.75l1.2-2.15c-1.15-.5-2.5-1-4-1-2.75 0-4.4 1.95-4.4 3.75-.05 2.85 2.4 3.6 3.8 3.95m16-7.75c-1.55 0-2.95.75-3.7 1.5l-.3-1.15h-2.15V24h2.4v-6.2l.1-.05c.7.75 2.1 1.35 3.45 1.35 3.25 0 6.25-2.1 6.25-6.75.05-4.2-2.85-6.5-6.05-6.5m-.3 10.9c-1.65 0-3.4-1.3-3.4-4.15v-.15c0-2.75 1.8-4.15 3.6-4.15 2.4 0 3.45 2.15 3.45 4.15 0 3.15-1.95 4.3-3.65 4.3M94 6.25l-.3 1.15c-.7-.75-2.15-1.5-3.7-1.5-3.15 0-6.05 2.5-6.05 6.55 0 4.2 2.9 6.75 6.05 6.75 1.55 0 2.95-.75 3.7-1.5l.3 1.15h2.15V6.35H94v-.1zm-.25 6.35c0 2.85-1.75 4.15-3.4 4.15-1.7 0-3.65-1.15-3.65-4.3 0-2 1.05-4.15 3.45-4.15 1.8 0 3.6 1.45 3.6 4.15v.15zm11.5 1c1.75.45 2.5.8 2.5 1.7 0 .7-.6 1.4-2 1.4-1.3 0-2.35-.45-3.35-1l-1.15 2.15c.9.55 2.85 1.3 4.5 1.3 2.8 0 4.45-1.9 4.45-3.8 0-3.3-3.25-3.8-4.1-4.1-1.8-.5-2.25-.85-2.25-1.6 0-.8.7-1.35 2-1.35 1.15 0 2 .35 2.8.75l1.2-2.15c-1.15-.5-2.5-1-4-1-2.75 0-4.4 1.95-4.4 3.75-.05 2.85 2.4 3.6 3.8 3.95m13.65 0c1.75.45 2.5.8 2.5 1.7 0 .7-.6 1.4-2 1.4-1.3 0-2.35-.45-3.35-1l-1.15 2.15c.9.55 2.85 1.3 4.5 1.3 2.8 0 4.45-1.9 4.45-3.8 0-3.3-3.25-3.8-4.1-4.1-1.8-.5-2.25-.85-2.25-1.6 0-.8.7-1.35 2-1.35 1.15 0 2 .35 2.8.75l1.2-2.15c-1.15-.5-2.5-1-4-1-2.75 0-4.4 1.95-4.4 3.75-.05 2.85 2.4 3.6 3.8 3.95" fill="#333"/></svg>